<?xml version="1.0" encoding="utf-8"?>
<!-- Generator: Adobe Illustrator 17.1.0, SVG Export Plug-In . SVG Version: 6.00 Build 0)  -->
<!DOCTYPE svg PUBLIC "-//W3C//DTD SVG 1.1//EN" "http://www.w3.org/Graphics/SVG/1.1/DTD/svg11.dtd">
<svg version="1.1" id="Laag_1" xmlns="http://www.w3.org/2000/svg" xmlns:xlink="http://www.w3.org/1999/xlink" x="0px" y="0px"
	 viewBox="0 0 60 1000" enable-background="new 0 0 60 1000" xml:space="preserve">
<g>
	<path fill="#555FA8" d="M13.8,9.7c0.1,0.1,0.1,0.4,0,0.5l-1.6,1.6c-0.1,0.1-0.4,0.1-0.5,0L7.3,7.4c-0.1-0.1-0.1-0.4,0-0.5l1.6-1.6
		c0.1-0.1,0.4-0.1,0.5,0L13.8,9.7z"/>
	<path fill="#555FA8" d="M24.7,20.6c0.1,0.1,0.1,0.4,0,0.5L23,22.7c-0.1,0.1-0.4,0.1-0.5,0l-4.4-4.4c-0.1-0.1-0.1-0.4,0-0.5l1.6-1.6
		c0.1-0.1,0.4-0.1,0.5,0L24.7,20.6z"/>
	<path fill="#555FA8" d="M13,17.1c2.9,2.9,4.9,1.5,4.9,1.5l4.5,4.5c0,0-0.9,0.9-1.3,1.3c-1.6,1.6-4.8-0.9-9.7-5.7s-7.3-8.1-5.7-9.7
		C6.1,8.5,7,7.6,7,7.6l4.5,4.5C11.4,12.1,10,14.1,13,17.1"/>
</g>
<g>
	<path d="M43.8,9.7c0.1,0.1,0.1,0.4,0,0.5l-1.6,1.6c-0.1,0.1-0.4,0.1-0.5,0l-4.4-4.4c-0.1-0.1-0.1-0.4,0-0.5l1.6-1.6
		c0.1-0.1,0.4-0.1,0.5,0L43.8,9.7z"/>
	<path d="M54.7,20.6c0.1,0.1,0.1,0.4,0,0.5L53,22.7c-0.1,0.1-0.4,0.1-0.5,0l-4.4-4.4c-0.1-0.1-0.1-0.4,0-0.5l1.6-1.6
		c0.1-0.1,0.4-0.1,0.5,0L54.7,20.6z"/>
	<path d="M43,17.1c2.9,2.9,4.9,1.5,4.9,1.5l4.5,4.5c0,0-0.9,0.9-1.3,1.3c-1.6,1.6-4.8-0.9-9.7-5.7s-7.3-8.1-5.7-9.7
		C36.1,8.5,37,7.6,37,7.6l4.5,4.5C41.4,12.1,40,14.1,43,17.1"/>
</g>
</svg>
