<?xml version="1.0" encoding="utf-8"?>
<!-- Generator: Adobe Illustrator 17.1.0, SVG Export Plug-In . SVG Version: 6.00 Build 0)  -->
<!DOCTYPE svg PUBLIC "-//W3C//DTD SVG 1.1//EN" "http://www.w3.org/Graphics/SVG/1.1/DTD/svg11.dtd">
<svg version="1.1" id="Laag_1" xmlns="http://www.w3.org/2000/svg" xmlns:xlink="http://www.w3.org/1999/xlink" x="0px" y="0px"
	 viewBox="267.6 170.9 60 500" enable-background="new 267.6 170.9 60 500" xml:space="preserve">
<g>
	<path fill="#6666FF" d="M281.6,182c0.1,0.1,0.1,0.3,0,0.4l-1.3,1.3c-0.1,0.1-0.3,0.1-0.4,0l-3.7-3.7c-0.1-0.1-0.1-0.3,0-0.4
		l1.3-1.3c0.1-0.1,0.3-0.1,0.4,0L281.6,182z"/>
	<path fill="#6666FF" d="M290.8,191.2c0.1,0.1,0.1,0.3,0,0.4l-1.4,1.3c-0.1,0.1-0.3,0.1-0.4,0l-3.7-3.7c-0.1-0.1-0.1-0.3,0-0.4
		l1.3-1.3c0.1-0.1,0.3-0.1,0.4,0L290.8,191.2z"/>
	<path fill="#6666FF" d="M281,188.2c2.4,2.4,4.1,1.3,4.1,1.3l3.8,3.8c0,0-0.8,0.8-1.1,1.1c-1.3,1.3-4-0.8-8.2-4.8
		c-4.1-4-6.1-6.8-4.8-8.2c0.3-0.4,1.1-1.2,1.1-1.2l3.8,3.8C279.6,184,278.4,185.7,281,188.2"/>
</g>
<g>
	<path d="M311.6,182c0.1,0.1,0.1,0.3,0,0.4l-1.3,1.3c-0.1,0.1-0.3,0.1-0.4,0l-3.7-3.7c-0.1-0.1-0.1-0.3,0-0.4l1.3-1.3
		c0.1-0.1,0.3-0.1,0.4,0L311.6,182z"/>
	<path d="M320.8,191.2c0.1,0.1,0.1,0.3,0,0.4l-1.4,1.3c-0.1,0.1-0.3,0.1-0.4,0l-3.7-3.7c-0.1-0.1-0.1-0.3,0-0.4l1.3-1.3
		c0.1-0.1,0.3-0.1,0.4,0L320.8,191.2z"/>
	<path d="M311,188.2c2.4,2.4,4.1,1.3,4.1,1.3l3.8,3.8c0,0-0.8,0.8-1.1,1.1c-1.3,1.3-4-0.8-8.2-4.8c-4.1-4-6.1-6.8-4.8-8.2
		c0.3-0.4,1.1-1.2,1.1-1.2l3.8,3.8C309.6,184,308.4,185.7,311,188.2"/>
</g>
<g>
	<path fill="#6666FF" d="M279.3,208.6c0.9-0.6,1.9-0.8,3.2-0.8c1.7,0,3,0.4,4.1,1.2c1.1,0.8,1.6,2,1.6,3.5c0,1-0.2,1.8-0.7,2.4
		c-0.3,0.4-0.8,0.9-1.6,1.5l-0.8,0.6c-0.4,0.3-0.7,0.7-0.8,1.2c-0.1,0.3-0.1,0.7-0.1,1.3h-3c0-1.2,0.2-2.1,0.4-2.6
		c0.2-0.5,0.7-1,1.5-1.6l0.8-0.6c0.3-0.2,0.5-0.4,0.6-0.6c0.3-0.4,0.4-0.8,0.4-1.3c0-0.6-0.2-1.1-0.5-1.5c-0.3-0.5-0.9-0.7-1.8-0.7
		c-0.8,0-1.5,0.3-1.8,0.8s-0.5,1.2-0.5,1.8h-3.2C277.1,210.9,277.9,209.5,279.3,208.6z M281.1,221h3.3v3.2h-3.3V221z"/>
</g>
<g>
	<path d="M309.3,208.6c0.9-0.6,1.9-0.8,3.2-0.8c1.7,0,3,0.4,4.1,1.2c1.1,0.8,1.6,2,1.6,3.5c0,1-0.2,1.8-0.7,2.4
		c-0.3,0.4-0.8,0.9-1.6,1.5l-0.8,0.6c-0.4,0.3-0.7,0.7-0.8,1.2c-0.1,0.3-0.1,0.7-0.1,1.3h-3c0-1.2,0.2-2.1,0.4-2.6
		c0.2-0.5,0.7-1,1.5-1.6l0.8-0.6c0.3-0.2,0.5-0.4,0.6-0.6c0.3-0.4,0.4-0.8,0.4-1.3c0-0.6-0.2-1.1-0.5-1.5c-0.3-0.5-0.9-0.7-1.8-0.7
		c-0.8,0-1.5,0.3-1.8,0.8s-0.5,1.2-0.5,1.8h-3.2C307.1,210.9,307.9,209.5,309.3,208.6z M311.1,221h3.3v3.2h-3.3V221z"/>
</g>
</svg>
