<?xml version="1.0" encoding="utf-8"?>
<!-- Generator: Adobe Illustrator 17.1.0, SVG Export Plug-In . SVG Version: 6.00 Build 0)  -->
<!DOCTYPE svg PUBLIC "-//W3C//DTD SVG 1.1//EN" "http://www.w3.org/Graphics/SVG/1.1/DTD/svg11.dtd">
<svg version="1.1" id="Laag_1" xmlns="http://www.w3.org/2000/svg" xmlns:xlink="http://www.w3.org/1999/xlink" x="0px" y="0px"
	 viewBox="-30 796.9 60 90" enable-background="new -30 796.9 60 90" xml:space="preserve">
<g>
	<path fill="#000033" d="M-16,807.4c0.1,0.1,0.1,0.3,0,0.4l-1.3,1.3c-0.1,0.1-0.3,0.1-0.4,0l-3.7-3.7c-0.1-0.1-0.1-0.3,0-0.4
		l1.3-1.3c0.1-0.1,0.3-0.1,0.4,0L-16,807.4z"/>
	<path fill="#000033" d="M-6.8,816.6c0.1,0.1,0.1,0.3,0,0.4l-1.4,1.3c-0.1,0.1-0.3,0.1-0.4,0l-3.7-3.7c-0.1-0.1-0.1-0.3,0-0.4
		l1.3-1.3c0.1-0.1,0.3-0.1,0.4,0L-6.8,816.6z"/>
	<path fill="#000033" d="M-16.7,813.7c2.4,2.4,4.1,1.3,4.1,1.3l3.8,3.8c0,0-0.8,0.8-1.1,1.1c-1.3,1.3-4-0.8-8.2-4.8
		s-6.1-6.8-4.8-8.2c0.3-0.4,1.1-1.2,1.1-1.2l3.8,3.8C-18,809.4-19.2,811.1-16.7,813.7"/>
</g>
<g>
	<path d="M14,807.4c0.1,0.1,0.1,0.3,0,0.4l-1.3,1.3c-0.1,0.1-0.3,0.1-0.4,0l-3.7-3.7c-0.1-0.1-0.1-0.3,0-0.4l1.3-1.3
		c0.1-0.1,0.3-0.1,0.4,0L14,807.4z"/>
	<path d="M23.2,816.6c0.1,0.1,0.1,0.3,0,0.4l-1.4,1.3c-0.1,0.1-0.3,0.1-0.4,0l-3.7-3.7c-0.1-0.1-0.1-0.3,0-0.4l1.3-1.3
		c0.1-0.1,0.3-0.1,0.4,0L23.2,816.6z"/>
	<path d="M13.3,813.7c2.4,2.4,4.1,1.3,4.1,1.3l3.8,3.8c0,0-0.8,0.8-1.1,1.1c-1.3,1.3-4-0.8-8.2-4.8s-6.1-6.8-4.8-8.2
		c0.3-0.4,1.1-1.2,1.1-1.2l3.8,3.8C12,809.4,10.8,811.1,13.3,813.7"/>
</g>
<g>
	<path fill="#000033" d="M-18.2,835.1c0.9-0.6,1.8-0.8,3.1-0.8c1.6,0,2.9,0.4,3.9,1.1c1,0.8,1.5,1.9,1.5,3.3c0,1-0.2,1.7-0.7,2.3
		c-0.3,0.4-0.8,0.9-1.5,1.4l-0.8,0.6c-0.4,0.3-0.7,0.7-0.8,1.1c-0.1,0.3-0.1,0.7-0.1,1.2h-2.9c0-1.1,0.2-2,0.4-2.5
		c0.2-0.5,0.7-1,1.4-1.5l0.8-0.6c0.3-0.2,0.5-0.4,0.6-0.6c0.3-0.4,0.4-0.8,0.4-1.2c0-0.6-0.2-1-0.5-1.4c-0.3-0.5-0.9-0.7-1.7-0.7
		c-0.8,0-1.4,0.3-1.7,0.8c-0.3,0.5-0.5,1.1-0.5,1.7h-3.1C-20.3,837.3-19.5,836-18.2,835.1z M-16.5,847h3.1v3.1h-3.1V847z"/>
</g>
<g>
	<path d="M11.8,835.1c0.9-0.6,1.8-0.8,3.1-0.8c1.6,0,2.9,0.4,3.9,1.1c1,0.8,1.5,1.9,1.5,3.3c0,1-0.2,1.7-0.7,2.3
		c-0.3,0.4-0.8,0.9-1.5,1.4l-0.8,0.6c-0.4,0.3-0.7,0.7-0.8,1.1c-0.1,0.3-0.1,0.7-0.1,1.2h-2.9c0-1.1,0.2-2,0.4-2.5
		c0.2-0.5,0.7-1,1.4-1.5l0.8-0.6c0.3-0.2,0.5-0.4,0.6-0.6c0.3-0.4,0.4-0.8,0.4-1.2c0-0.6-0.2-1-0.5-1.4c-0.3-0.5-0.9-0.7-1.7-0.7
		c-0.8,0-1.4,0.3-1.7,0.8c-0.3,0.5-0.5,1.1-0.5,1.7H9.7C9.7,837.3,10.5,836,11.8,835.1z M13.5,847h3.1v3.1h-3.1V847z"/>
</g>
<polygon fill="#000033" points="-8.5,869.6 -14.9,875.9 -21.3,869.6 "/>
<polygon points="8.7,875.9 15.1,869.6 21.5,875.9 "/>
</svg>
