<?xml version="1.0" encoding="utf-8"?>
<!DOCTYPE svg PUBLIC "-//W3C//DTD SVG 1.1//EN" "http://www.w3.org/Graphics/SVG/1.1/DTD/svg11.dtd">
<svg version="1.1" id="Laag_1" xmlns="http://www.w3.org/2000/svg" xmlns:xlink="http://www.w3.org/1999/xlink" x="0px" y="0px"
	 viewBox="-30 811.9 60 60" enable-background="new -30 811.9 60 60" xml:space="preserve">
<g>
	<path fill="#6666FF" d="M-16,822.5c0.1,0.1,0.1,0.3,0,0.4l-1.3,1.3c-0.1,0.1-0.3,0.1-0.4,0l-3.7-3.7c-0.1-0.1-0.1-0.3,0-0.4
		l1.3-1.3c0.1-0.1,0.3-0.1,0.4,0L-16,822.5z"/>
	<path fill="#6666FF" d="M-6.8,831.7c0.1,0.1,0.1,0.3,0,0.4l-1.4,1.3c-0.1,0.1-0.3,0.1-0.4,0l-3.7-3.7c-0.1-0.1-0.1-0.3,0-0.4
		l1.3-1.3c0.1-0.1,0.3-0.1,0.4,0L-6.8,831.7z"/>
	<path fill="#6666FF" d="M-16.7,828.7c2.4,2.4,4.1,1.3,4.1,1.3l3.8,3.8c0,0-0.8,0.8-1.1,1.1c-1.3,1.3-4-0.8-8.2-4.8
		s-6.1-6.8-4.8-8.2c0.3-0.4,1.1-1.2,1.1-1.2l3.8,3.8C-18,824.5-19.2,826.2-16.7,828.7"/>
</g>
<g>
	<path d="M14,822.5c0.1,0.1,0.1,0.3,0,0.4l-1.3,1.3c-0.1,0.1-0.3,0.1-0.4,0l-3.7-3.7c-0.1-0.1-0.1-0.3,0-0.4l1.3-1.3
		c0.1-0.1,0.3-0.1,0.4,0L14,822.5z"/>
	<path d="M23.2,831.7c0.1,0.1,0.1,0.3,0,0.4l-1.4,1.3c-0.1,0.1-0.3,0.1-0.4,0l-3.7-3.7c-0.1-0.1-0.1-0.3,0-0.4L19,828
		c0.1-0.1,0.3-0.1,0.4,0L23.2,831.7z"/>
	<path d="M13.3,828.7c2.4,2.4,4.1,1.3,4.1,1.3l3.8,3.8c0,0-0.8,0.8-1.1,1.1c-1.3,1.3-4-0.8-8.2-4.8s-6.1-6.8-4.8-8.2
		c0.3-0.4,1.1-1.2,1.1-1.2l3.8,3.8C12,824.5,10.8,826.2,13.3,828.7"/>
</g>
<g>
	<path fill="#6666FF" d="M-18.2,850.2c0.9-0.6,1.8-0.8,3.1-0.8c1.6,0,2.9,0.4,3.9,1.1c1,0.8,1.5,1.9,1.5,3.3c0,1-0.2,1.7-0.7,2.3
		c-0.3,0.4-0.8,0.9-1.5,1.4l-0.8,0.6c-0.4,0.3-0.7,0.7-0.8,1.1c-0.1,0.3-0.1,0.7-0.1,1.2h-2.9c0-1.1,0.2-2,0.4-2.5
		c0.2-0.5,0.7-1,1.4-1.5l0.8-0.6c0.3-0.2,0.5-0.4,0.6-0.6c0.3-0.4,0.4-0.8,0.4-1.2c0-0.6-0.2-1-0.5-1.4c-0.3-0.5-0.9-0.7-1.7-0.7
		c-0.8,0-1.4,0.3-1.7,0.8c-0.3,0.5-0.5,1.1-0.5,1.7h-3.1C-20.3,852.4-19.5,851-18.2,850.2z M-16.5,862h3.1v3.1h-3.1V862z"/>
</g>
<g>
	<path d="M11.8,850.2c0.9-0.6,1.8-0.8,3.1-0.8c1.6,0,2.9,0.4,3.9,1.1c1,0.8,1.5,1.9,1.5,3.3c0,1-0.2,1.7-0.7,2.3
		c-0.3,0.4-0.8,0.9-1.5,1.4l-0.8,0.6c-0.4,0.3-0.7,0.7-0.8,1.1c-0.1,0.3-0.1,0.7-0.1,1.2h-2.9c0-1.1,0.2-2,0.4-2.5
		c0.2-0.5,0.7-1,1.4-1.5l0.8-0.6c0.3-0.2,0.5-0.4,0.6-0.6c0.3-0.4,0.4-0.8,0.4-1.2c0-0.6-0.2-1-0.5-1.4c-0.3-0.5-0.9-0.7-1.7-0.7
		c-0.8,0-1.4,0.3-1.7,0.8c-0.3,0.5-0.5,1.1-0.5,1.7H9.7C9.7,852.4,10.5,851,11.8,850.2z M13.5,862h3.1v3.1h-3.1V862z"/>
</g>
</svg>
