<?xml version="1.0" encoding="utf-8"?><svg version="1.1" x="0px" y="0px" viewBox="-30 796.9 60 90" enable-background="new -30 796.9 60 90"><g><path fill="#6666FF" d="M-16,806.8c0.1,0.1,0.1,0.3,0,0.4l-1.3,1.3c-0.1,0.1-0.3,0.1-0.4,0l-3.7-3.7c-0.1-0.1-0.1-0.3,0-0.4l1.3-1.3c0.1-0.1,0.3-0.1,0.4,0L-16,806.8z"/><path fill="#6666FF" d="M-6.8,816c0.1,0.1,0.1,0.3,0,0.4l-1.4,1.3c-0.1,0.1-0.3,0.1-0.4,0l-3.7-3.7c-0.1-0.1-0.1-0.3,0-0.4l1.3-1.3c0.1-0.1,0.3-0.1,0.4,0L-6.8,816z"/><path fill="#6666FF" d="M-16.7,813.1c2.4,2.4,4.1,1.3,4.1,1.3l3.8,3.8c0,0-0.8,0.8-1.1,1.1c-1.3,1.3-4-0.8-8.2-4.8s-6.1-6.8-4.8-8.2c0.3-0.4,1.1-1.2,1.1-1.2l3.8,3.8C-18,808.9-19.2,810.5-16.7,813.1"/></g><g><path d="M14,806.8c0.1,0.1,0.1,0.3,0,0.4l-1.3,1.3c-0.1,0.1-0.3,0.1-0.4,0l-3.7-3.7c-0.1-0.1-0.1-0.3,0-0.4l1.3-1.3c0.1-0.1,0.3-0.1,0.4,0L14,806.8z"/><path d="M23.2,816c0.1,0.1,0.1,0.3,0,0.4l-1.4,1.3c-0.1,0.1-0.3,0.1-0.4,0l-3.7-3.7c-0.1-0.1-0.1-0.3,0-0.4l1.3-1.3c0.1-0.1,0.3-0.1,0.4,0L23.2,816z"/><path d="M13.3,813.1c2.4,2.4,4.1,1.3,4.1,1.3l3.8,3.8c0,0-0.8,0.8-1.1,1.1c-1.3,1.3-4-0.8-8.2-4.8s-6.1-6.8-4.8-8.2c0.3-0.4,1.1-1.2,1.1-1.2l3.8,3.8C12,808.9,10.8,810.5,13.3,813.1"/></g><g><path fill="#6666FF" d="M-18.2,834.5c0.9-0.6,1.8-0.8,3.1-0.8c1.6,0,2.9,0.4,3.9,1.1c1,0.8,1.5,1.9,1.5,3.3c0,1-0.2,1.7-0.7,2.3c-0.3,0.4-0.8,0.9-1.5,1.4l-0.8,0.6c-0.4,0.3-0.7,0.7-0.8,1.1c-0.1,0.3-0.1,0.7-0.1,1.2h-2.9c0-1.1,0.2-2,0.4-2.5c0.2-0.5,0.7-1,1.4-1.5l0.8-0.6c0.3-0.2,0.5-0.4,0.6-0.6c0.3-0.4,0.4-0.8,0.4-1.2c0-0.6-0.2-1-0.5-1.4c-0.3-0.5-0.9-0.7-1.7-0.7c-0.8,0-1.4,0.3-1.7,0.8c-0.3,0.5-0.5,1.1-0.5,1.7h-3.1C-20.3,836.7-19.5,835.4-18.2,834.5z M-16.5,846.4h3.1v3.1h-3.1V846.4z"/></g><g><path d="M11.8,834.5c0.9-0.6,1.8-0.8,3.1-0.8c1.6,0,2.9,0.4,3.9,1.1c1,0.8,1.5,1.9,1.5,3.3c0,1-0.2,1.7-0.7,2.3c-0.3,0.4-0.8,0.9-1.5,1.4l-0.8,0.6c-0.4,0.3-0.7,0.7-0.8,1.1c-0.1,0.3-0.1,0.7-0.1,1.2h-2.9c0-1.1,0.2-2,0.4-2.5c0.2-0.5,0.7-1,1.4-1.5l0.8-0.6c0.3-0.2,0.5-0.4,0.6-0.6c0.3-0.4,0.4-0.8,0.4-1.2c0-0.6-0.2-1-0.5-1.4c-0.3-0.5-0.9-0.7-1.7-0.7c-0.8,0-1.4,0.3-1.7,0.8c-0.3,0.5-0.5,1.1-0.5,1.7H9.7C9.7,836.7,10.5,835.4,11.8,834.5z M13.5,846.4h3.1v3.1h-3.1V846.4z"/></g><polygon fill="#6666FF" points="-5.8,866.7 -15,875.9 -24.2,866.7 "/><polygon points="4.9,875.9 14.1,866.7 23.4,875.9 "/></svg>