<?xml version="1.0" encoding="utf-8"?>
<!-- Generator: Adobe Illustrator 15.0.0, SVG Export Plug-In . SVG Version: 6.00 Build 0)  -->
<!DOCTYPE svg PUBLIC "-//W3C//DTD SVG 1.1//EN" "http://www.w3.org/Graphics/SVG/1.1/DTD/svg11.dtd">
<svg version="1.1" id="Layer_1" xmlns="http://www.w3.org/2000/svg" xmlns:xlink="http://www.w3.org/1999/xlink" x="0px" y="0px"
	 width="195px" height="40px" viewBox="-5.5 0 195 40" enable-background="new -5.5 0 195 40" xml:space="preserve">
<g>
	<path fill="#FFFFFF" d="M30.8,14.517h5.9c2.4,0,4.2,1.1,4.2,3.299c0,1.601-0.8,2.601-2.3,3l0,0c1.7,0.399,2.6,1.301,2.6,2.899
		c0,3.101-2.7,3.8-5,3.8h-5.4V14.517L30.8,14.517z M34.2,25.018h1c1.3,0,2.6-0.199,2.6-1.5c0-1.399-1.4-1.5-2.5-1.5h-1.1V25.018
		L34.2,25.018z M34.2,19.617h1c1.1,0,2.3-0.3,2.3-1.4c0-1.2-1.1-1.3-2.3-1.3h-1V19.617L34.2,19.617z"/>
	<path fill="#FFFFFF" d="M45.5,14.517h6.1c2.3,0,4.2,1,4.2,3.299c0,1.7-0.8,2.9-2.5,3.301l0,0c1.1,0.3,1.2,1.3,1.8,2.898l1.3,3.5
		h-3.6l-0.7-2.3c-0.7-2.2-1.1-2.8-2.4-2.8H49v5.1h-3.5V14.517L45.5,14.517z M49,19.917h0.9c1.1,0,2.5,0,2.5-1.5
		c0-1.2-1.2-1.4-2.5-1.4H49V19.917L49,19.917z"/>
	<path fill="#FFFFFF" d="M63.9,14.517h4.2l5,13h-3.8l-1-2.801h-4.8l-1,2.801H59L63.9,14.517L63.9,14.517z M66,17.117L66,17.117
		l-1.7,5.1h3.2L66,17.117L66,17.117z"/>
	<polygon fill="#FFFFFF" points="76.6,14.517 80.9,14.517 85.3,23.316 85.4,23.316 85.3,14.517 88.4,14.517 88.4,27.518 
		84.2,27.518 79.6,18.617 79.6,18.617 79.7,27.518 76.6,27.518 	"/>
	<path fill="#FFFFFF" d="M93.4,14.517h4.7c4.5,0,7.602,1.4,7.602,6.5c0,4.899-3.2,6.601-7.602,6.601h-4.7V14.517L93.4,14.517z
		 M96.9,24.917h1.3c2.6,0,4-1.3,4-3.899c0-2.601-1.5-3.899-4-3.899h-1.3V24.917L96.9,24.917z"/>
	<polygon fill="#FFFFFF" points="108.8,14.517 112.3,14.517 114,24.518 114,24.518 115.8,14.517 120.2,14.517 122,24.518 
		122,24.518 123.7,14.517 127,14.517 124.2,27.518 119.7,27.518 117.9,17.518 117.9,17.518 116.2,27.518 111.7,27.518 	"/>
	<polygon fill="#FFFFFF" points="130.7,14.517 139.8,14.517 139.8,16.917 134.2,16.917 134.2,19.617 139.5,19.617 139.5,22.117 
		134.2,22.117 134.2,25.018 140,25.018 140,27.518 130.7,27.518 	"/>
	<polygon fill="#FFFFFF" points="144.7,14.517 153.8,14.517 153.8,16.917 148.1,16.917 148.1,19.617 153.4,19.617 153.4,22.117 
		148.1,22.117 148.1,25.018 154,25.018 154,27.518 144.7,27.518 	"/>
	<path fill="#FFFFFF" d="M158.6,14.517h6.102c2.3,0,4.199,1,4.199,3.299c0,1.7-0.801,2.9-2.5,3.301l0,0
		c1.101,0.3,1.199,1.3,1.801,2.898l1.3,3.5H165.9l-0.699-2.3c-0.7-2.2-1.102-2.8-2.4-2.8h-0.699v5.1H158.7v-13L158.6,14.517
		L158.6,14.517z M162,19.917h0.9c1.1,0,2.5,0,2.5-1.5c0-1.2-1.2-1.4-2.5-1.4H162V19.917L162,19.917z"/>
	<path fill="#C1A52F" d="M7.2,20.417c-1-2.601-3.4-4.7-4.1-7.1c-0.7,0.2-1.4,0.5-2,0.8c0.3,6,3.5,9.8,6.2,11.8
		C8,23.617,7.8,22.117,7.2,20.417L7.2,20.417z"/>
	<path fill="#C1A52F" d="M13,10.017c2.6,0.4,5,1.1,6.9,2.2c0,4.2-1.2,7.601-2.8,10.301l2.5,2.899c2.3-3.5,3.9-8,3.9-13.7
		c-2.9-2.2-7.3-3.5-11.9-3.8C12,8.717,12.5,9.417,13,10.017L13,10.017z"/>
	<path fill="#C1A52F" d="M-1.9,12.317c0,4.2,1.2,7.6,2.8,10.3l-2.5,2.898c-2.2-3.5-3.9-7.999-3.9-13.7c2.2-1.7,5.3-2.8,8.6-3.4
		c-0.2,0.7-0.4,1.4-0.4,2.1C1,10.917-0.6,11.517-1.9,12.317L-1.9,12.317z"/>
	<path fill="#C1A52F" d="M9,34.417c-1.8-0.601-4.8-2.3-7.5-5.101l2.4-2.899c1.8,1.8,3.7,3,5.1,3.601c1.3-0.601,3.2-1.801,5-3.601
		l2.5,2.899C13.8,32.117,10.8,33.816,9,34.417L9,34.417z"/>
	<path fill="#C1A52F" d="M12.8,20.417c2.1-2.8,2-5.5,1.7-7.2c0.9,0.3,1.8,0.6,2.5,1c-0.3,7.5-5.4,11.602-8,13
		c-0.4-0.199-0.8-0.398-1.2-0.699c4.6-5.699,0.1-11.201-0.6-12.301c-0.8-1.1-1.8-2.8-2.1-4.3c-0.6-2.5-0.2-5.9,3.6-9.5l0.3,0.1
		c-1.8,3.5-1.6,5.4-0.9,7.6c0.8,2.4,3.9,5.5,4.5,8.4c0.2,1.1,0.3,2.4-0.1,3.9H12.8L12.8,20.417z"/>
</g>
</svg>
