<?xml version="1.0" encoding="utf-8"?>
<!-- Generator: Adobe Illustrator 15.0.0, SVG Export Plug-In . SVG Version: 6.00 Build 0)  -->
<!DOCTYPE svg PUBLIC "-//W3C//DTD SVG 1.1//EN" "http://www.w3.org/Graphics/SVG/1.1/DTD/svg11.dtd">
<svg version="1.1" id="Layer_1" xmlns="http://www.w3.org/2000/svg" xmlns:xlink="http://www.w3.org/1999/xlink" x="0px" y="0px"
	 width="175px" height="34px" viewBox="0 0 175 34" enable-background="new 0 0 175 34" xml:space="preserve">
<g>
	<path fill-rule="evenodd" clip-rule="evenodd" fill="#FFFFFF" d="M36.3,14.1h5.9c2.4,0,4.2,1.1,4.2,3.3c0,1.6-0.8,2.6-2.3,3v0
		c1.7,0.4,2.6,1.3,2.6,2.9c0,3.1-2.7,3.8-5,3.8h-5.4V14.1L36.3,14.1z M39.7,24.6h1c1.3,0,2.6-0.2,2.6-1.5c0-1.4-1.4-1.5-2.5-1.5
		h-1.1V24.6L39.7,24.6z M39.7,19.2h1c1.1,0,2.3-0.3,2.3-1.4c0-1.2-1.1-1.3-2.3-1.3h-1V19.2L39.7,19.2z"/>
	<path fill-rule="evenodd" clip-rule="evenodd" fill="#FFFFFF" d="M51,14.1h6.1c2.3,0,4.2,1,4.2,3.3c0,1.7-0.8,2.9-2.5,3.3v0
		c1.1,0.3,1.2,1.3,1.8,2.9l1.3,3.5h-3.6l-0.7-2.3c-0.7-2.2-1.1-2.8-2.4-2.8h-0.7v5.1H51V14.1L51,14.1z M54.5,19.5h0.9
		c1.1,0,2.5,0,2.5-1.5c0-1.2-1.2-1.4-2.5-1.4h-0.9V19.5L54.5,19.5z"/>
	<path fill-rule="evenodd" clip-rule="evenodd" fill="#FFFFFF" d="M69.4,14.1h4.2l5,13h-3.8l-1-2.8H69l-1,2.8h-3.5L69.4,14.1
		L69.4,14.1z M71.5,16.7L71.5,16.7l-1.7,5.1H73L71.5,16.7L71.5,16.7z"/>
	<polygon fill-rule="evenodd" clip-rule="evenodd" fill="#FFFFFF" points="82.1,14.1 86.4,14.1 90.8,22.9 90.9,22.9 90.8,14.1 
		93.9,14.1 93.9,27.1 89.7,27.1 85.1,18.2 85.1,18.2 85.2,27.1 82.1,27.1 82.1,14.1 	"/>
	<path fill-rule="evenodd" clip-rule="evenodd" fill="#FFFFFF" d="M98.9,14.1h4.7c4.5,0,7.6,1.4,7.6,6.5c0,4.9-3.2,6.6-7.6,6.6h-4.7
		V14.1L98.9,14.1z M102.4,24.5h1.3c2.6,0,4-1.3,4-3.9s-1.5-3.9-4-3.9h-1.3V24.5L102.4,24.5z"/>
	<polygon fill-rule="evenodd" clip-rule="evenodd" fill="#FFFFFF" points="114.3,14.1 117.8,14.1 119.5,24.1 119.5,24.1 121.3,14.1 
		125.7,14.1 127.5,24.1 127.5,24.1 129.2,14.1 132.5,14.1 129.7,27.1 125.2,27.1 123.4,17.1 123.4,17.1 121.7,27.1 117.2,27.1 
		114.3,14.1 	"/>
	<polygon fill-rule="evenodd" clip-rule="evenodd" fill="#FFFFFF" points="136.2,14.1 145.3,14.1 145.3,16.5 139.7,16.5 139.7,19.2 
		145,19.2 145,21.7 139.7,21.7 139.7,24.6 145.5,24.6 145.5,27.1 136.2,27.1 136.2,14.1 	"/>
	<polygon fill-rule="evenodd" clip-rule="evenodd" fill="#FFFFFF" points="150.2,14.1 159.3,14.1 159.3,16.5 153.6,16.5 153.6,19.2 
		158.9,19.2 158.9,21.7 153.6,21.7 153.6,24.6 159.5,24.6 159.5,27.1 150.2,27.1 150.2,14.1 	"/>
	<path fill-rule="evenodd" clip-rule="evenodd" fill="#FFFFFF" d="M164.1,14.1h6.1c2.3,0,4.2,1,4.2,3.3c0,1.7-0.8,2.9-2.5,3.3v0
		c1.1,0.3,1.2,1.3,1.8,2.9l1.3,3.5h-3.6l-0.7-2.3c-0.7-2.2-1.1-2.8-2.4-2.8h-0.7v5.1h-3.4V14.1L164.1,14.1z M167.5,19.5h0.9
		c1.1,0,2.5,0,2.5-1.5c0-1.2-1.2-1.4-2.5-1.4h-0.9V19.5L167.5,19.5z"/>
	<path fill-rule="evenodd" clip-rule="evenodd" fill="#C1A52F" d="M12.7,20c-1-2.6-3.4-4.7-4.1-7.1c-0.7,0.2-1.4,0.5-2,0.8
		c0.3,6,3.5,9.8,6.2,11.8C13.5,23.2,13.3,21.7,12.7,20L12.7,20z"/>
	<path fill-rule="evenodd" clip-rule="evenodd" fill="#C1A52F" d="M18.5,9.6c2.6,0.4,5,1.1,6.9,2.2c0,4.2-1.2,7.6-2.8,10.3l2.5,2.9
		c2.3-3.5,3.9-8,3.9-13.7c-2.9-2.2-7.3-3.5-11.9-3.8C17.5,8.3,18,9,18.5,9.6L18.5,9.6z"/>
	<path fill-rule="evenodd" clip-rule="evenodd" fill="#C1A52F" d="M3.6,11.9c0,4.2,1.2,7.6,2.8,10.3l-2.5,2.9
		C1.7,21.6,0,17.1,0,11.4C2.2,9.7,5.3,8.6,8.6,8c-0.2,0.7-0.4,1.4-0.4,2.1C6.5,10.5,4.9,11.1,3.6,11.9L3.6,11.9z"/>
	<path fill-rule="evenodd" clip-rule="evenodd" fill="#C1A52F" d="M14.5,34c-1.8-0.6-4.8-2.3-7.5-5.1L9.4,26c1.8,1.8,3.7,3,5.1,3.6
		c1.3-0.6,3.2-1.8,5-3.6l2.5,2.9C19.3,31.7,16.3,33.4,14.5,34L14.5,34z"/>
	<path fill-rule="evenodd" clip-rule="evenodd" fill="#C1A52F" d="M18.3,20c2.1-2.8,2-5.5,1.7-7.2c0.9,0.3,1.8,0.6,2.5,1
		c-0.3,7.5-5.4,11.6-8,13c-0.4-0.2-0.8-0.4-1.2-0.7c4.6-5.7,0.1-11.2-0.6-12.3c-0.8-1.1-1.8-2.8-2.1-4.3C10,7,10.4,3.6,14.2,0
		l0.3,0.1c-1.8,3.5-1.6,5.4-0.9,7.6c0.8,2.4,3.9,5.5,4.5,8.4c0.2,1.1,0.3,2.4-0.1,3.9L18.3,20L18.3,20z"/>
</g>
</svg>
